<svg width="54" height="54" viewBox="0 0 54 54" fill="none" xmlns="http://www.w3.org/2000/svg">
    <path
        d="M17.55 4.5H36.45C43.65 4.5 49.5 10.35 49.5 17.55V36.45C49.5 39.9111 48.1251 43.2304 45.6777 45.6777C43.2304 48.1251 39.9111 49.5 36.45 49.5H17.55C10.35 49.5 4.5 43.65 4.5 36.45V17.55C4.5 14.0889 5.87491 10.7696 8.32226 8.32226C10.7696 5.87491 14.0889 4.5 17.55 4.5ZM17.1 9C14.9517 9 12.8915 9.85339 11.3724 11.3724C9.85339 12.8915 9 14.9517 9 17.1V36.9C9 41.3775 12.6225 45 17.1 45H36.9C39.0483 45 41.1085 44.1466 42.6276 42.6276C44.1466 41.1085 45 39.0483 45 36.9V17.1C45 12.6225 41.3775 9 36.9 9H17.1ZM38.8125 12.375C39.5584 12.375 40.2738 12.6713 40.8012 13.1988C41.3287 13.7262 41.625 14.4416 41.625 15.1875C41.625 15.9334 41.3287 16.6488 40.8012 17.1762C40.2738 17.7037 39.5584 18 38.8125 18C38.0666 18 37.3512 17.7037 36.8238 17.1762C36.2963 16.6488 36 15.9334 36 15.1875C36 14.4416 36.2963 13.7262 36.8238 13.1988C37.3512 12.6713 38.0666 12.375 38.8125 12.375ZM27 15.75C29.9837 15.75 32.8452 16.9353 34.955 19.045C37.0647 21.1548 38.25 24.0163 38.25 27C38.25 29.9837 37.0647 32.8452 34.955 34.955C32.8452 37.0647 29.9837 38.25 27 38.25C24.0163 38.25 21.1548 37.0647 19.045 34.955C16.9353 32.8452 15.75 29.9837 15.75 27C15.75 24.0163 16.9353 21.1548 19.045 19.045C21.1548 16.9353 24.0163 15.75 27 15.75ZM27 20.25C25.2098 20.25 23.4929 20.9612 22.227 22.227C20.9612 23.4929 20.25 25.2098 20.25 27C20.25 28.7902 20.9612 30.5071 22.227 31.773C23.4929 33.0388 25.2098 33.75 27 33.75C28.7902 33.75 30.5071 33.0388 31.773 31.773C33.0388 30.5071 33.75 28.7902 33.75 27C33.75 25.2098 33.0388 23.4929 31.773 22.227C30.5071 20.9612 28.7902 20.25 27 20.25Z"
        fill="white" />
</svg>