<svg width="54" height="54" viewBox="0 0 54 54" fill="none" xmlns="http://www.w3.org/2000/svg">
    <path fill-rule="evenodd" clip-rule="evenodd"
        d="M11.205 25.344L21.7823 30.4695C22.2275 30.6858 22.5957 31.0334 22.8371 31.4656C23.0785 31.8977 23.1815 32.3935 23.1323 32.886C23.0802 33.379 22.8772 33.8439 22.551 34.2172C22.2248 34.5905 21.7913 34.8541 21.3098 34.9718L9.88427 37.8C9.37923 37.9222 8.84844 37.8809 8.36843 37.6819C7.88842 37.4829 7.48401 37.1367 7.21352 36.693C7.03821 36.3976 6.92634 36.0688 6.88502 35.7278C6.53661 32.6971 6.86238 29.6269 7.83902 26.7368C7.94962 26.4116 8.12851 26.1139 8.36369 25.8636C8.59887 25.6133 8.88488 25.4162 9.20252 25.2855C9.52131 25.1558 9.86366 25.094 10.2077 25.1041C10.5517 25.1142 10.8899 25.1959 11.2005 25.344M15.4395 46.9778L23.3145 38.2905C23.6483 37.9216 24.0873 37.664 24.5721 37.5525C25.057 37.4411 25.5644 37.4811 26.0258 37.6673C26.4841 37.8535 26.8746 38.1752 27.1452 38.5893C27.4158 39.0034 27.5535 39.4903 27.54 39.9848L27.1283 51.6735C27.1159 52.0173 27.0299 52.3545 26.8762 52.6623C26.7225 52.97 26.5046 53.2413 26.2373 53.4578C25.969 53.6753 25.6575 53.8332 25.3235 53.9209C24.9894 54.0086 24.6405 54.0241 24.3 53.9663C21.2767 53.4612 18.3993 52.305 15.867 50.5778C15.5826 50.384 15.3431 50.1315 15.1645 49.8373C14.986 49.5431 14.8726 49.214 14.832 48.8723C14.7924 48.5314 14.8261 48.1861 14.9309 47.8593C15.0357 47.5326 15.2091 47.232 15.4395 46.9778ZM34.11 35.415L45.3038 39.0285C45.6311 39.1347 45.9321 39.3091 46.1869 39.5403C46.4418 39.7714 46.6446 40.0541 46.782 40.3695C46.9192 40.6843 46.9868 41.0249 46.9802 41.3682C46.9736 41.7115 46.8929 42.0493 46.7438 42.3585C45.421 45.1131 43.511 47.5446 41.148 49.482C40.8813 49.7013 40.571 49.8614 40.2377 49.9515C39.9044 50.0417 39.5557 50.06 39.2148 50.0051C38.8739 49.9502 38.5486 49.8234 38.2604 49.6331C37.9723 49.4429 37.7279 49.1935 37.5435 48.9015L31.3043 38.9835C31.041 38.5648 30.9137 38.075 30.9399 37.5811C30.9661 37.0872 31.1444 36.6135 31.4505 36.225C31.7577 35.8342 32.1774 35.547 32.653 35.4021C33.1285 35.2573 33.6371 35.2618 34.11 35.415ZM45.4928 28.323L34.1775 31.5473C33.6996 31.6827 33.1917 31.669 32.7218 31.5082C32.2518 31.3474 31.8421 31.0471 31.5473 30.6473C31.2551 30.248 31.0937 29.768 31.0852 29.2733C31.0768 28.7786 31.2217 28.2933 31.5 27.8843L38.0835 18.1913C38.2767 17.907 38.5281 17.667 38.8209 17.487C39.1137 17.3071 39.4414 17.1913 39.7823 17.1473C40.1237 17.1055 40.4702 17.1353 40.7995 17.2348C41.1288 17.3344 41.4337 17.5015 41.6948 17.7255C43.9972 19.7377 45.8253 22.2351 47.0475 25.038C47.1859 25.3535 47.2549 25.6951 47.25 26.0396C47.245 26.384 47.1662 26.7235 47.0188 27.0349C46.8714 27.3463 46.6589 27.6224 46.3957 27.8446C46.1324 28.0669 45.8245 28.23 45.4928 28.323ZM19.0553 1.05303C17.0554 1.58276 15.1084 2.29526 13.239 3.18153C12.9386 3.32531 12.6709 3.52933 12.4526 3.78092C12.2343 4.03251 12.07 4.32629 11.97 4.64403C11.8712 4.96081 11.8396 5.29472 11.8771 5.62443C11.9147 5.95413 12.0207 6.27236 12.1883 6.55878L23.247 25.5848C23.5145 26.0461 23.9267 26.4063 24.4198 26.6093C24.9129 26.8123 25.4593 26.8468 25.974 26.7075C26.4894 26.5742 26.9457 26.2732 27.2712 25.852C27.5966 25.4308 27.7728 24.9133 27.7718 24.381V2.41203C27.7737 1.91045 27.6182 1.42092 27.3271 1.01242C27.0361 0.603913 26.6242 0.297033 26.1495 0.135025C25.8338 0.0263864 25.4993 -0.017239 25.1663 0.00677543C23.1008 0.168775 21.0578 0.519775 19.0575 1.05303"
        fill="white" />
</svg>